<svg xmlns="http://www.w3.org/2000/svg" version="1.1" xmlns:xlink="http://www.w3.org/1999/xlink" xmlns:svgjs="http://svgjs.dev/svgjs" width="2000" height="575" viewBox="0 0 2000 575"><g transform="matrix(1,0,0,1,-1.2121212121212466,0.4301206047640562)"><svg viewBox="0 0 396 114" data-background-color="#ffffff" preserveAspectRatio="xMidYMid meet" height="575" width="2000" xmlns="http://www.w3.org/2000/svg" xmlns:xlink="http://www.w3.org/1999/xlink"><g id="tight-bounds" transform="matrix(1,0,0,1,0.2400000000000091,-0.0852760851184371)"><svg viewBox="0 0 395.52 114.17055217023686" height="114.17055217023686" width="395.52"><g><svg viewBox="0 0 536.6677214831107 154.9141638695126" height="114.17055217023686" width="395.52"><g transform="matrix(1,0,0,1,141.14772148311062,14.482820617697243)"><svg viewBox="0 0 395.52 125.94852263411812" height="125.94852263411812" width="395.52"><g id="textblocktransform"><svg viewBox="0 0 395.52 125.94852263411812" height="125.94852263411812" width="395.52" id="textblock"><g><svg viewBox="0 0 395.52 90.16261964735516" height="90.16261964735516" width="395.52"><g transform="matrix(1,0,0,1,0,0)"><svg width="395.52" viewBox="2.25 -35.6 158.79 36.2" height="90.16261964735516" data-palette-color="#ea3a36"><path d="M15.25-35L22.15-35 22.15-16.05Q22.15-13.25 22.48-11.78 22.8-10.3 23.8-8.43 24.8-6.55 25.18-6.55 25.55-6.55 26.55-8.43 27.55-10.3 27.9-11.78 28.25-13.25 28.25-16.05L28.25-16.05 28.25-21.4Q28.25-25.6 27.68-27.28 27.1-28.95 25.25-31.4L25.25-31.4 31.25-35.6Q32.85-34.5 34-31.5 35.15-28.5 35.15-24.3L35.15-24.3 35.15-16.05Q35.15-12.15 34.4-9.63 33.65-7.1 30.28-3.25 26.9 0.6 25.2 0.6L25.2 0.6Q24.15 0.6 22.28-1.3 20.4-3.2 18.7-5.75L18.7-5.75Q16.9-3.15 15.08-1.28 13.25 0.6 12.2 0.6L12.2 0.6Q10.5 0.6 7.13-3.25 3.75-7.1 3-9.63 2.25-12.15 2.25-16.05L2.25-16.05 2.25-35 9.15-35 9.15-16.05Q9.15-12.8 9.5-11.55 9.85-10.3 10.85-8.43 11.85-6.55 12.23-6.55 12.6-6.55 13.6-8.43 14.6-10.3 14.93-11.78 15.25-13.25 15.25-16.05L15.25-16.05 15.25-35ZM44.35-32.35Q47.9-35.6 49.75-35.6 51.6-35.6 55.15-32.35 58.7-29.1 59.55-27L59.55-27Q60.1-25.55 60.1-20.45L60.1-20.45 60.1 0 53.2 0 53.2-7.5 46.3-7.5 46.3 0 39.4 0 39.4-20.45Q39.4-25.55 39.95-27L39.95-27Q40.8-29.1 44.35-32.35ZM46.3-20.45L46.3-20.45 46.3-13.5 53.2-13.5 53.2-20.45Q53.2-24.55 52.8-25.48 52.4-26.4 51.42-27.43 50.45-28.45 49.75-28.45 49.05-28.45 48.07-27.43 47.1-26.4 46.7-25.48 46.3-24.55 46.3-20.45ZM73-24.9L73-24.9 73-22 74.5-22Q75.34-22 76.27-22.93 77.2-23.85 77.67-24.68 78.15-25.5 78.65-29.43 79.15-33.35 79.15-35L79.15-35 86.05-35Q86.05-33.05 85.5-28.9 84.95-24.75 84.5-23.8L84.5-23.8Q83.75-22.15 80.7-19.35L80.7-19.35Q84.25-16.3 85.3-14.2L85.3-14.2Q85.8-13.15 86.32-7.88 86.84-2.6 86.84 0L86.84 0 79.95 0Q79.95-2.35 79.47-7.38 79-12.4 78.55-13.2L78.55-13.2Q77-16 74.9-16L74.9-16 73-16 73 0 66.09 0 66.09-21.9Q66.09-25.95 65.52-27.53 64.95-29.1 63.1-31.4L63.1-31.4 69.09-35.6Q70.7-34.55 71.84-31.73 73-28.9 73-24.9ZM98.69-28.2L98.69-21.3 107.64-21.3 107.64-15.25 98.69-15.25 98.69-6.05 110.64-6.05 110.64 0 91.79 0 91.79-30.8 98.69-35.6 109.84-35.6 109.84-29.5 100.54-29.5 98.69-28.2ZM120.89-32.85L120.89-32.85Q124.89-35.6 126.34-35.6 127.79-35.6 130.82-32.98 133.84-30.35 134.59-29.28 135.34-28.2 135.34-26.45L135.34-26.45Q135.34-23.05 134.79-22.4L134.79-22.4Q133.74-20.8 131.54-18.65L131.54-18.65Q134.59-15.75 135.34-14.2L135.34-14.2Q135.74-13.15 136.19-7.83 136.64-2.5 136.64 0L136.64 0 129.14 0Q129.14-2.25 128.74-7.05 128.34-11.85 127.87-12.85 127.39-13.85 126.74-14.6L126.74-14.6 122.29-14.6 122.29 0 115.39 0 115.39-21.9Q115.39-25.95 114.82-27.53 114.24-29.1 112.39-31.4L112.39-31.4 118.39-35.6Q119.99-34.55 120.89-32.85ZM122.29-24.3L122.29-24.3 122.29-20.45 124.24-20.45Q124.94-20.45 126.04-21.55 127.14-22.65 127.47-23.43 127.79-24.2 127.79-25.05 127.79-25.9 127.47-26.58 127.14-27.25 126.54-28.1 125.94-28.95 125.54-28.95L125.54-28.95Q124.19-28.95 122.14-28.3L122.14-28.3Q122.29-26.35 122.29-24.3ZM154.14 0L147.24 0 147.24-14Q145.29-15.6 143.46-17.82 141.64-20.05 140.99-21.33 140.34-22.6 140.34-26.55L140.34-26.55 140.34-35 147.24-35 147.24-26.55Q147.24-24 147.66-22.98 148.09-21.95 149.16-20.5 150.24-19.05 150.69-19.05 151.14-19.05 152.24-20.53 153.34-22 153.74-22.95 154.14-23.9 154.14-26.55L154.14-26.55 154.14-35 161.04-35 161.04-26.55Q161.04-22.55 160.39-21.3 159.74-20.05 157.89-17.82 156.04-15.6 154.14-14L154.14-14 154.14 0Z" opacity="1" transform="matrix(1,0,0,1,0,0)" fill="#ea3a36" class="wordmark-text-0" data-fill-palette-color="primary" id="text-0"></path></svg></g></svg></g><g transform="matrix(1,0,0,1,0,111.44785024322417)"><svg viewBox="0 0 180.35711999999998 14.500672390893946" height="14.500672390893946" width="180.35711999999998"><g transform="matrix(1,0,0,1,0,0)"><svg width="180.35711999999998" viewBox="5.76 -41.94 659.5 53.019999999999996" height="14.500672390893946" data-palette-color="#ea3a36"><path d="M28.56-27.78L28.56-27.78Q28.56-20.26 22.88-19.51L22.88-19.51 22.88-19.43Q26.39-19.17 28.13-17.43L28.13-17.43Q30.13-15.38 30.13-11.49 30.13-7.59 29.24-5.44 28.34-3.3 26.76-2.1L26.76-2.1Q24.05 0 18.24 0L18.24 0 5.76 0 5.76-37.23Q12.52-37.87 16.92-37.87 21.31-37.87 23.36-37.19 25.42-36.52 26.56-35.25L26.56-35.25Q28.56-33.03 28.56-27.78ZM9.91-20.68L15.41-20.68Q20.31-20.68 22.22-22.07L22.22-22.07Q24.39-23.63 24.39-27.88L24.39-27.88 24.39-28.39Q24.39-31.67 22.95-33.06L22.95-33.06Q21.51-34.42 18.04-34.42L18.04-34.42Q15.14-34.42 13.11-34.3L13.11-34.3 9.91-34.11 9.91-20.68ZM9.91-3.47L18.75-3.47Q22.34-3.47 23.88-4.83L23.88-4.83Q25.81-6.57 25.81-11.04L25.81-11.04Q25.81-16.21 22.02-17.09L22.02-17.09Q20.87-17.36 19.53-17.36L19.53-17.36 9.91-17.36 9.91-3.47ZM60.98-19.41L60.98-10.3Q60.98-5.44 61.45-0.2L61.45-0.2 57.83 0.1 57.22-3.3Q54.12-0.81 49.02 0.17L49.02 0.17Q47.36 0.49 46.07 0.49 44.77 0.49 43.78 0.37 42.8 0.24 41.88-0.11 40.96-0.46 40.18-1.1 39.4-1.73 38.82-2.78L38.82-2.78Q37.57-5 37.57-8.12 37.57-11.23 38.02-12.95 38.47-14.67 39.52-15.82L39.52-15.82Q41.6-18.09 46.51-18.09 51.41-18.09 56.98-16.24L56.98-16.24 56.98-19.41Q56.98-24.71 52.61-25.68L52.61-25.68Q51.19-26 49.36-26L49.36-26Q45.19-26 40.7-24.34L40.7-24.34 39.79-27.86Q41.04-28.69 46.14-29.35L46.14-29.35Q47.75-29.54 50.01-29.54 52.27-29.54 54.44-29 56.61-28.47 58.05-27.25L58.05-27.25Q60.98-24.83 60.98-19.41L60.98-19.41ZM56.88-13.18L56.88-13.18Q51.17-14.62 46.34-14.62L46.34-14.62Q43.36-14.62 42.38-12.92L42.38-12.92Q41.72-11.72 41.72-9.38 41.72-7.03 41.98-5.98 42.23-4.93 42.82-4.25L42.82-4.25Q43.97-2.95 46.6-2.95L46.6-2.95Q50.73-2.95 54.78-5.08L54.78-5.08Q56.03-5.71 57.03-6.49L57.03-6.49Q56.88-9.13 56.88-13.18ZM71.97 0L71.97-41.46 76.02-41.89 76.02-16.7Q77-16.5 78.38-17.7 79.76-18.9 80.83-19.98 81.9-21.07 83.05-22.36L83.05-22.36Q87.18-27.12 88.47-29.05L88.47-29.05 93.31-29.05Q92.77-27.83 90.84-25.59L90.84-25.59 87.57-21.9Q84.91-19.04 83.31-17.68 81.71-16.31 81.2-16.11L81.2-16.11 81.2-15.87 81.93-15.5Q83.52-14.75 86.08-11.47L86.08-11.47 95.19 0 90.06 0 83.86-8.13Q79.56-13.75 77.29-13.94L77.29-13.94 76.75-13.99Q76.51-14.01 76.31-14 76.12-13.99 76.02-13.99L76.02-13.99 76.02 0 71.97 0ZM122.7-5.03L123.89-1.54Q118.84 0.49 112.74 0.49L112.74 0.49Q109.2 0.49 106.73-0.24L106.73-0.24Q102.8-1.37 101.51-4.88L101.51-4.88Q100.31-8.18 100.31-14.65L100.31-14.65 100.31-15.89Q100.31-23.63 103.53-26.76L103.53-26.76Q106.44-29.54 113.22-29.54L113.22-29.54Q119.84-29.54 122.26-26.27L122.26-26.27Q123.43-24.68 123.81-22.42 124.19-20.17 124.19-18.12L124.19-18.12Q124.19-14.92 124.04-13.16L124.04-13.16Q120.6-13.01 117.86-13.01L117.86-13.01Q117.86-13.01 113.93-13.01L113.93-13.01Q107.78-13.01 104.46-13.55L104.46-13.55Q104.46-7.93 105.88-5.71L105.88-5.71Q107.61-3 112.79-3 117.96-3 122.7-5.03L122.7-5.03ZM104.46-16.41L120.06-16.41 120.06-18.75Q120.06-22.58 118.57-24.22L118.57-24.22Q116.91-26.05 112.83-26.05L112.83-26.05Q107.95-26.05 106.17-23.93L106.17-23.93Q104.46-21.9 104.46-16.41L104.46-16.41ZM144.86-25.51L144.86-25.51Q141.74-25.51 138.49-22.39L138.49-22.39 138.49 0 134.44 0 134.44-29.05 138-29.05 138.39-25.2Q139.54-26.98 140.87-27.98 142.2-28.98 143.06-29.2L143.06-29.2Q144.28-29.54 145.38-29.54 146.47-29.54 148.13-29.1L148.13-29.1 147.77-25.22Q146.52-25.51 144.86-25.51ZM153.55 10.21L154.65 7.03Q156.43 7.67 157.57 7.67 158.7 7.67 159.06 7.6 159.41 7.54 159.78 7.35L159.78 7.35Q160.63 6.88 161.05 5.83L161.05 5.83Q162.07 3.34 162.83 0.37L162.83 0.37 151.62-29.05 156.14-29.05 163.71-7.64 164.86-3.88 165.91-7.67 172.59-29.05 176.84-29.05 164.59 6.88Q163.24 11.08 158.39 11.08L158.39 11.08Q155.31 11.08 153.55 10.21L153.55 10.21ZM202.72 0L193.68-29.05 198.03-29.05 204.18-7.71 205.28-3.05 206.09-6.96 212.43-29.05 216.44-29.05 222.69-7.71 223.76-3 224.54-6.98 230.6-29.05 234.99-29.05 226.4 0 221.05 0 215.49-18.63 214.36-24.34 213.36-18.63 207.82 0 202.72 0ZM256.35-25.76L256.35-25.76Q251.49-25.76 246.71-22.95L246.71-22.95 246.71 0 242.66 0 242.66-41.55 246.61-41.94 246.61-26.05Q249.13-28.2 253.15-29.15L253.15-29.15Q254.77-29.54 256.96-29.54 259.16-29.54 260.82-29.04 262.48-28.54 263.46-27.44L263.46-27.44Q265.21-25.46 265.21-20.24L265.21-20.24 265.21 0 261.11 0 261.11-19.51Q261.11-23.02 260.43-24.04 259.75-25.05 258.81-25.4 257.87-25.76 256.35-25.76ZM297.49-5.03L298.68-1.54Q293.63 0.49 287.53 0.49L287.53 0.49Q283.99 0.49 281.52-0.24L281.52-0.24Q277.59-1.37 276.3-4.88L276.3-4.88Q275.1-8.18 275.1-14.65L275.1-14.65 275.1-15.89Q275.1-23.63 278.32-26.76L278.32-26.76Q281.23-29.54 288.01-29.54L288.01-29.54Q294.63-29.54 297.05-26.27L297.05-26.27Q298.22-24.68 298.6-22.42 298.98-20.17 298.98-18.12L298.98-18.12Q298.98-14.92 298.83-13.16L298.83-13.16Q295.39-13.01 292.65-13.01L292.65-13.01Q292.65-13.01 288.72-13.01L288.72-13.01Q282.57-13.01 279.25-13.55L279.25-13.55Q279.25-7.93 280.67-5.71L280.67-5.71Q282.4-3 287.58-3 292.75-3 297.49-5.03L297.49-5.03ZM279.25-16.41L294.85-16.41 294.85-18.75Q294.85-22.58 293.36-24.22L293.36-24.22Q291.7-26.05 287.62-26.05L287.62-26.05Q282.74-26.05 280.96-23.93L280.96-23.93Q279.25-21.9 279.25-16.41L279.25-16.41ZM319.65-25.51L319.65-25.51Q316.53-25.51 313.28-22.39L313.28-22.39 313.28 0 309.23 0 309.23-29.05 312.79-29.05 313.18-25.2Q314.33-26.98 315.66-27.98 316.99-28.98 317.85-29.2L317.85-29.2Q319.07-29.54 320.17-29.54 321.26-29.54 322.92-29.1L322.92-29.1 322.56-25.22Q321.31-25.51 319.65-25.51ZM351.63-5.03L352.83-1.54Q347.78 0.49 341.67 0.49L341.67 0.49Q338.13 0.49 335.67-0.24L335.67-0.24Q331.74-1.37 330.44-4.88L330.44-4.88Q329.24-8.18 329.24-14.65L329.24-14.65 329.24-15.89Q329.24-23.63 332.47-26.76L332.47-26.76Q335.37-29.54 342.16-29.54L342.16-29.54Q348.78-29.54 351.19-26.27L351.19-26.27Q352.37-24.68 352.74-22.42 353.12-20.17 353.12-18.12L353.12-18.12Q353.12-14.92 352.98-13.16L352.98-13.16Q349.53-13.01 346.8-13.01L346.8-13.01Q346.8-13.01 342.87-13.01L342.87-13.01Q336.72-13.01 333.4-13.55L333.4-13.55Q333.4-7.93 334.81-5.71L334.81-5.71Q336.54-3 341.72-3 346.9-3 351.63-5.03L351.63-5.03ZM333.4-16.41L349-16.41 349-18.75Q349-22.58 347.51-24.22L347.51-24.22Q345.85-26.05 341.77-26.05L341.77-26.05Q336.89-26.05 335.1-23.93L335.1-23.93Q333.4-21.9 333.4-16.41L333.4-16.41ZM381.29 0L371.23-37.35 375.72-37.35 382.95-9.13 384.22-3.17 385.64-9.13 393.16-37.35 398.01-37.35 406.97-2.98 408.27-9.23 415.15-37.35 419.55-37.35 409.98 0 403.78 0 396.62-26.71 395.52-33.01 394.38-26.71 387 0 381.29 0ZM447.3-5.03L448.5-1.54Q443.45 0.49 437.34 0.49L437.34 0.49Q433.8 0.49 431.34-0.24L431.34-0.24Q427.41-1.37 426.11-4.88L426.11-4.88Q424.92-8.18 424.92-14.65L424.92-14.65 424.92-15.89Q424.92-23.63 428.14-26.76L428.14-26.76Q431.04-29.54 437.83-29.54L437.83-29.54Q444.45-29.54 446.86-26.27L446.86-26.27Q448.04-24.68 448.41-22.42 448.79-20.17 448.79-18.12L448.79-18.12Q448.79-14.92 448.65-13.16L448.65-13.16Q445.2-13.01 442.47-13.01L442.47-13.01Q442.47-13.01 438.54-13.01L438.54-13.01Q432.39-13.01 429.07-13.55L429.07-13.55Q429.07-7.93 430.48-5.71L430.48-5.71Q432.22-3 437.39-3 442.57-3 447.3-5.03L447.3-5.03ZM429.07-16.41L444.67-16.41 444.67-18.75Q444.67-22.58 443.18-24.22L443.18-24.22Q441.52-26.05 437.44-26.05L437.44-26.05Q432.56-26.05 430.78-23.93L430.78-23.93Q429.07-21.9 429.07-16.41L429.07-16.41ZM469.47-25.51L469.47-25.51Q466.34-25.51 463.1-22.39L463.1-22.39 463.1 0 459.04 0 459.04-29.05 462.61-29.05 463-25.2Q464.15-26.98 465.48-27.98 466.81-28.98 467.66-29.2L467.66-29.2Q468.88-29.54 469.98-29.54 471.08-29.54 472.74-29.1L472.74-29.1 472.37-25.22Q471.13-25.51 469.47-25.51ZM501.45-5.03L502.65-1.54Q497.59 0.49 491.49 0.49L491.49 0.49Q487.95 0.49 485.48-0.24L485.48-0.24Q481.55-1.37 480.26-4.88L480.26-4.88Q479.06-8.18 479.06-14.65L479.06-14.65 479.06-15.89Q479.06-23.63 482.28-26.76L482.28-26.76Q485.19-29.54 491.98-29.54L491.98-29.54Q498.59-29.54 501.01-26.27L501.01-26.27Q502.18-24.68 502.56-22.42 502.94-20.17 502.94-18.12L502.94-18.12Q502.94-14.92 502.79-13.16L502.79-13.16Q499.35-13.01 496.62-13.01L496.62-13.01Q496.62-13.01 492.68-13.01L492.68-13.01Q486.53-13.01 483.21-13.55L483.21-13.55Q483.21-7.93 484.63-5.71L484.63-5.71Q486.36-3 491.54-3 496.71-3 501.45-5.03L501.45-5.03ZM483.21-16.41L498.81-16.41 498.81-18.75Q498.81-22.58 497.32-24.22L497.32-24.22Q495.66-26.05 491.59-26.05L491.59-26.05Q486.7-26.05 484.92-23.93L484.92-23.93Q483.21-21.9 483.21-16.41L483.21-16.41ZM526.91-25.76L526.91-25.76Q522.05-25.76 517.27-22.95L517.27-22.95 517.27 0 513.21 0 513.21-41.55 517.17-41.94 517.17-26.05Q519.68-28.2 523.71-29.15L523.71-29.15Q525.32-29.54 527.52-29.54 529.72-29.54 531.38-29.04 533.04-28.54 534.02-27.44L534.02-27.44Q535.77-25.46 535.77-20.24L535.77-20.24 535.77 0 531.67 0 531.67-19.51Q531.67-23.02 530.99-24.04 530.3-25.05 529.36-25.4 528.42-25.76 526.91-25.76ZM545.63-14.45L545.63-14.45Q545.63-20 546.2-22.19 546.76-24.39 547.57-25.67 548.39-26.95 549.78-27.81L549.78-27.81Q552.57-29.54 558.01-29.54L558.01-29.54Q565.87-29.54 568.12-25.66L568.12-25.66Q569.46-23.32 569.66-19.04L569.66-19.04Q569.73-17.02 569.73-14.58 569.73-12.13 569.57-10.02 569.41-7.91 568.95-6.23 568.49-4.54 567.66-3.28 566.83-2.03 565.46-1.17L565.46-1.17Q562.77 0.49 557.62 0.49L557.62 0.49Q549.91 0.49 547.49-3.32L547.49-3.32Q546-5.69 545.76-9.96L545.76-9.96Q545.63-12.01 545.63-14.45ZM552.27-4.27Q553.15-3.61 554.48-3.28 555.81-2.95 558.12-2.95 560.43-2.95 562-3.61 563.58-4.27 564.37-5.73 565.16-7.18 565.37-9.5 565.58-11.82 565.58-14.89 565.58-17.97 565.4-20.02 565.21-22.07 564.48-23.41L564.48-23.41Q563.02-26.05 557.96-26.05L557.96-26.05Q552.62-26.05 551-23.41L551-23.41Q550.2-22.07 549.98-20 549.76-17.92 549.76-15.48 549.76-13.04 549.82-11.34 549.88-9.64 550.14-8.29 550.39-6.93 550.89-5.93 551.4-4.93 552.27-4.27ZM601.73-29.05L601.73-12.79Q601.73-4.74 602.2-0.2L602.2-0.2 598.56 0.1 597.97-3.34Q595.12-0.98 591.31 0.07L591.31 0.07Q589.8 0.49 587.71 0.49 585.62 0.49 583.97-0.01 582.33-0.51 581.35-1.61L581.35-1.61Q579.57-3.59 579.57-8.81L579.57-8.81 579.57-29.05 583.67-29.05 583.67-9.47Q583.67-5.96 584.35-4.94 585.04-3.93 585.98-3.58 586.92-3.22 588.21-3.22 589.5-3.22 590.71-3.43 591.92-3.64 593.14-4.03L593.14-4.03Q595.7-4.86 597.78-6.3L597.78-6.3 597.78-6.32Q597.68-8.18 597.68-13.55L597.68-13.55 597.68-29.05 601.73-29.05ZM611.35-2.39L613.11-5.76Q618.14-2.95 623.22-2.95L623.22-2.95Q627.44-2.95 628.17-5.96L628.17-5.96Q628.42-6.98 628.42-8.46 628.42-9.94 628.07-10.75 627.73-11.57 626.93-11.98 626.12-12.38 624.79-12.57 623.46-12.77 621.41-13.12 619.36-13.48 617.65-13.92 615.94-14.36 614.74-15.19L614.74-15.19Q612.21-16.97 612.3-21.19L612.3-21.19 612.3-21.8Q612.3-26.25 615.23-28.13L615.23-28.13Q618.07-29.98 624.58-29.39L624.58-29.39Q629.03-28.98 631.66-27.86L631.66-27.86 630.52-24.17Q627.59-25.42 623.49-25.98L623.49-25.98Q622.22-26.15 621.1-26.15 619.99-26.15 619.09-25.98 618.19-25.81 617.58-25.34L617.58-25.34Q616.41-24.39 616.36-21.8L616.36-21.8Q616.28-18.75 618.07-17.92L618.07-17.92Q619.77-17.11 622.12-16.81 624.46-16.5 625.95-16.27 627.44-16.04 628.66-15.65 629.88-15.26 630.76-14.4L630.76-14.4Q632.59-12.67 632.54-8.37L632.54-8.37Q632.42-0.88 626.29 0.17L626.29 0.17Q624.44 0.49 622.58 0.49 620.73 0.49 619.18 0.26 617.63 0.02 616.21-0.39L616.21-0.39Q613.52-1.15 611.35-2.39L611.35-2.39ZM663.77-5.03L664.96-1.54Q659.91 0.49 653.8 0.49L653.8 0.49Q650.26 0.49 647.8-0.24L647.8-0.24Q643.87-1.37 642.57-4.88L642.57-4.88Q641.38-8.18 641.38-14.65L641.38-14.65 641.38-15.89Q641.38-23.63 644.6-26.76L644.6-26.76Q647.51-29.54 654.29-29.54L654.29-29.54Q660.91-29.54 663.33-26.27L663.33-26.27Q664.5-24.68 664.88-22.42 665.26-20.17 665.26-18.12L665.26-18.12Q665.26-14.92 665.11-13.16L665.11-13.16Q661.67-13.01 658.93-13.01L658.93-13.01Q658.93-13.01 655-13.01L655-13.01Q648.85-13.01 645.53-13.55L645.53-13.55Q645.53-7.93 646.94-5.71L646.94-5.71Q648.68-3 653.85-3 659.03-3 663.77-5.03L663.77-5.03ZM645.53-16.41L661.13-16.41 661.13-18.75Q661.13-22.58 659.64-24.22L659.64-24.22Q657.98-26.05 653.9-26.05L653.9-26.05Q649.02-26.05 647.24-23.93L647.24-23.93Q645.53-21.9 645.53-16.41L645.53-16.41Z" opacity="1" transform="matrix(1,0,0,1,0,0)" fill="#ea3a36" class="slogan-text-1" data-fill-palette-color="secondary" id="text-1"></path></svg></g></svg></g></svg></g></svg></g><g><svg viewBox="0 0 119.8624908872416 154.9141638695126" height="154.9141638695126" width="119.8624908872416"><g><svg xmlns="http://www.w3.org/2000/svg" xmlns:xlink="http://www.w3.org/1999/xlink" version="1.1" x="0" y="0" viewBox="11.452907485383136 0.18319745593316278 77.09324248441663 99.63780254406683" enable-background="new 0 0 100 100" xml:space="preserve" height="154.9141638695126" width="119.8624908872416" class="icon-icon-0" data-fill-palette-color="accent" id="icon-0"><path d="M82.511 27.412c-0.153-0.45-0.335-0.918-0.542-1.396-0.309-1.83-1.747-5.274-1.766-5.313l-0.298-0.659c-0.651-1.429-1.391-3.047-1.525-4.437-0.104-1.073 1.284-6.627 1.951-9.297 1.232-4.926 1.362-5.439-0.14-5.982-0.063-0.023-0.339-0.117-0.695-0.087-0.002 0-0.006-0.001-0.009-0.002-1.432-0.309-2.96 0.686-5.537 2.471-0.451 0.312-1.042 0.721-1.599 1.081 0.194-0.91 0.166-2.092-0.995-3.021-1.473-1.179-3.561 0.025-6.72 1.851-0.885 0.512-2.206 1.277-3.088 1.671-0.698-1.148-1.984-2.393-4.411-1.901-1.373 0.278-2.967 1.482-5.24 3.29-0.594 0.472-1.365 1.083-2.006 1.543-0.01-0.414-0.058-0.866-0.225-1.31-0.799-2.107-2.104-2.776-3.059-2.966-3.087-0.618-6.411 2.896-9.074 5.721-0.167 0.178-0.341 0.361-0.512 0.541-0.771-1.276-1.738-2.592-3.159-2.841-1.37-0.249-7.019 1.107-12.253 5.707-4.985 4.38-10.784 12.835-10.101 28.248 0.189 4.247 2.483 41.865 24.748 55.107 4.921 2.929 10.396 4.39 16.39 4.39 7.176 0 15.095-2.097 23.695-6.287C99.438 82.278 82.694 27.953 82.511 27.412zM74.902 90.58c-14.725 7.176-27.163 7.86-36.969 2.026C17.15 80.245 14.969 44.241 14.789 40.177c-0.458-10.333 2.045-18.458 7.441-24.148 4.628-4.88 9.882-6.251 11.043-6.399 0.393 0.325 1.019 1.403 1.331 1.942 0.274 0.472 0.511 0.881 0.757 1.21 0.526 0.703 1.515 0.868 2.241 0.371 0.604-0.413 1.324-1.176 2.319-2.233 1.294-1.372 4.726-5.016 6.044-4.754 0.19 0.039 0.432 0.387 0.624 0.891 0.027 0.109 0.021 0.439 0.016 0.656-0.017 0.818-0.049 2.342 1.308 3.141 1.58 0.931 3.349-0.477 6.025-2.604 1.178-0.935 3.147-2.5 3.851-2.642 0.6-0.123 0.779-0.16 1.327 1.18 0.203 0.495 0.633 0.86 1.155 0.979 1.377 0.316 3.096-0.622 6.008-2.305 0.714-0.414 1.725-0.997 2.535-1.404-0.262 0.765-0.496 1.825 0.147 2.846 0.317 0.499 0.812 0.84 1.398 0.959 1.408 0.289 2.915-0.695 5.456-2.454 0.459-0.318 1.062-0.735 1.631-1.101-0.099 0.398-0.201 0.809-0.302 1.206-1.284 5.138-2.182 8.893-2.034 10.411 0.077 0.792 0.268 1.578 0.518 2.342-1.675-1.002-3.583-1.524-5.677-1.222-1.18 0.17-2.325 0.668-3.379 1.452-1.541-1.364-3.285-2.314-5.158-2.481-4.594-0.411-10.566-0.412-14.952 1.486-1.987-1.58-4.941-1.796-8.208-0.576-5.852 2.186-9.76 5.959-11.616 11.216-4.686 13.274 5.215 32.351 9.747 40.022-0.164 1.434-0.124 2.876 0.167 4.269 0.791 3.781 4.143 10.188 17.713 10.63 16.722 0.545 22.231-6.685 22.858-11.04 0.339-2.355-0.765-3.736-2.013-4.06-1.087-0.281-4.48-0.328-12.545-0.372-7.308-0.041-19.064-0.107-22.618-0.773 1-3.952 3.772-7.497 6.152-8.631 1.762-0.844 2.623-0.134 3.116 0.473 0.646 0.792 1.375 0.934 1.863 0.939 1.077-0.021 1.734-0.803 2.146-1.342 0.404 0.174 0.913 0.562 1.444 0.966 1.293 0.984 3.066 2.335 5.648 2.366 1.396-0.012 2.551-0.383 3.365-1.188 1.332-1.316 1.442-3.296 1.442-5.379 0-2.181-0.385-4.188-0.757-6.127l-0.197-1.041c-0.765-4.127-1.848-8.546-3.217-13.135-0.281-0.939-0.59-1.899-0.901-2.862-0.438-1.356-0.891-2.758-1.247-4.074-0.231-0.85-0.744-3.052-1.118-4.66-0.191-0.825-0.347-1.49-0.408-1.738-0.221-0.879-1.112-1.414-1.991-1.193-0.88 0.22-1.414 1.112-1.193 1.991 0.06 0.241 0.21 0.885 0.396 1.684 0.381 1.633 0.9 3.869 1.147 4.776 0.377 1.39 0.841 2.83 1.29 4.222 0.304 0.939 0.606 1.877 0.879 2.794 1.338 4.477 2.395 8.78 3.136 12.792l0.201 1.062c0.358 1.872 0.699 3.64 0.699 5.508 0 0.901 0 2.581-0.468 3.044-0.209 0.205-0.678 0.239-1.019 0.239-1.496-0.018-2.566-0.832-3.7-1.694-1.138-0.868-2.422-1.863-4.105-1.72-0.722 0.055-1.21 0.481-1.562 0.894-1.704-1.469-3.945-1.686-6.301-0.563-2.839 1.354-5.578 4.587-7.119 8.388-4.623-8.42-11.58-23.769-7.835-34.374 1.539-4.357 4.702-7.378 9.669-9.233 0.633-0.237 2.413-0.813 3.896-0.457-2.427 2.45-5.893 8.44-5.435 12.451 0.201 1.769 1.147 3.108 2.663 3.77 2.727 1.193 6.862 0.501 8.436-2.391 0.894-1.645 1.177-4.261 0.842-7.779-0.061-0.642-0.354-3.16-1.345-5.357 3.003-1.086 7.366-1.424 12.663-0.952 0.985 0.088 2.072 0.639 3.16 1.577-0.101 0.141-0.199 0.284-0.297 0.43-2.025 3.06-2.879 7.052-2.12 9.932 0.317 1.204 1.155 2.146 2.425 2.726 2.276 1.041 5.57 0.713 7.439-0.207 0.839-0.411 1.736-1.451 1.249-4.067-0.438-2.36-1.95-5.873-4.165-8.749 0.525-0.341 1.066-0.557 1.606-0.634 3.628-0.533 6.886 3.368 8.464 6.87 0.006 0.017 0.014 0.033 0.021 0.05 0.19 0.426 0.356 0.847 0.494 1.253C82.27 36.925 93.027 81.749 74.902 90.58zM66.648 23.53c2.244 3.174 3.165 6.318 3.199 7.445-1.197 0.403-3.087 0.494-4.19-0.011-0.525-0.24-0.593-0.493-0.613-0.576-0.498-1.885 0.133-4.781 1.502-7.002C66.58 23.434 66.615 23.482 66.648 23.53zM46.081 31.805c-0.652 1.199-2.913 1.53-4.238 0.952-0.32-0.14-0.628-0.374-0.715-1.133-0.313-2.747 2.631-7.936 4.467-9.747 0.484 1.192 0.819 2.716 0.944 4.03C46.796 28.601 46.624 30.806 46.081 31.805zM39.57 70.049c3.103 0.547 9.463 0.748 22.979 0.823 4.6 0.025 9.753 0.055 11.355 0.212 0.026 0.468-0.139 1.45-0.95 2.659-1.315 1.952-5.758 6.445-18.579 6.037-8.518-0.276-13.568-3.049-14.608-8.021C39.649 71.195 39.586 70.624 39.57 70.049z" fill="#f27d2c" data-fill-palette-color="accent"></path></svg></g></svg></g></svg></g><defs></defs></svg><rect width="395.52" height="114.17055217023686" fill="none" stroke="none" visibility="hidden"></rect></g></svg></g></svg>