<svg width="750" height="750" viewBox="0 0 750 750" fill="none" xmlns="http://www.w3.org/2000/svg">
<path d="M429.719 238.086C421.299 205.576 397.52 175.684 366.969 161.431C343.313 150.396 315.641 148.231 290.556 155.452C271.244 161.013 253.137 172.42 242.217 189.292C222.714 219.427 238.293 252.358 247.403 283.131C252.684 300.973 255.44 320.793 247.785 337.755C231.783 373.207 185.235 379.938 162.431 409.611C132.939 447.985 109.02 500.032 147.953 541.909C184.515 581.238 240.531 568.096 276.138 535.56C303.357 510.687 341.796 492.942 379.269 498.931C415.956 504.795 443.634 532.326 472.301 553.591C513.281 583.989 573.399 571.591 606.371 535.131C640.617 497.26 644.598 417.889 601.885 384.336C583.735 370.078 561.887 368.107 540.031 364.347C509.392 359.074 458.913 347.214 442.902 317.376C430.059 293.443 436.305 265.107 430.089 239.568C429.971 239.073 429.846 238.579 429.719 238.086Z" fill="#FCF1DD"/>
<path d="M669.551 565.776H637.634C639.944 564.505 641.528 562.078 641.528 559.255V503.989C641.528 499.863 638.183 496.518 634.056 496.518H593.916C589.79 496.518 586.445 493.173 586.445 489.046V445.446C586.445 441.319 583.1 437.974 578.973 437.974H559.067C554.94 437.974 551.595 441.319 551.595 445.446V463.62C551.595 467.746 548.25 471.091 544.124 471.091H507.264C503.138 471.091 499.793 474.436 499.793 478.563V559.255C499.793 562.078 501.377 564.505 503.687 565.776H495.896C498.206 564.505 499.79 562.078 499.79 559.255V517.437C499.79 513.31 496.445 509.965 492.318 509.965H459.945C455.819 509.965 452.474 506.62 452.474 502.494V458.541C452.474 454.414 449.129 451.069 445.002 451.069H403.425C399.299 451.069 395.954 454.414 395.954 458.541V474.105C395.954 478.231 392.609 481.576 388.482 481.576H380.414C376.287 481.576 372.942 484.921 372.942 489.048C372.942 493.174 369.597 496.519 365.471 496.519H325.331C321.204 496.519 317.859 493.174 317.859 489.048V445.447C317.859 441.321 314.514 437.976 310.388 437.976H290.481C286.355 437.976 283.01 441.321 283.01 445.447V463.621C283.01 467.748 279.665 471.093 275.538 471.093H238.677C234.551 471.093 231.206 474.438 231.206 478.564V559.257C231.206 562.08 232.79 564.507 235.1 565.777H227.307C229.617 564.507 231.201 562.08 231.201 559.257V517.438C231.201 513.312 227.856 509.967 223.73 509.967H191.355C187.229 509.967 183.884 506.622 183.884 502.495V458.542C183.884 454.416 180.539 451.071 176.412 451.071H134.844C130.718 451.071 127.373 454.416 127.373 458.542V474.106C127.373 478.233 124.028 481.578 119.901 481.578H111.833C107.706 481.578 104.361 484.923 104.361 489.049V559.257C104.361 562.08 105.945 564.507 108.255 565.777H80.4495C79.536 565.777 78.795 566.518 78.795 567.432C78.795 568.345 79.536 569.088 80.4495 569.088H669.551C670.464 569.088 671.205 568.347 671.205 567.432C671.205 566.517 670.464 565.776 669.551 565.776Z" fill="#FFA800"/>
<path d="M477.841 290.772H603.562C603.381 283.314 604.326 276.544 597.579 271.774C592.282 268.032 584.972 266.764 581.122 272.767C575.592 265.143 573.473 255.156 564.836 249.418C554.919 242.832 540.676 244.543 534.165 254.689C531.421 252.115 530.066 247.975 526.904 245.563C520.917 240.999 511.986 242.992 506.26 247.482C498.421 253.629 498.858 265.687 498.469 274.707C488.419 265.702 475.981 277.153 477.841 290.772Z" fill="#FFC178"/>
<path d="M83.349 341.274H209.07C208.889 333.816 209.834 327.045 203.087 322.276C197.79 318.534 190.479 317.266 186.63 323.269C181.1 315.645 178.98 305.658 170.343 299.92C160.427 293.334 146.184 295.044 139.673 305.191C136.929 302.616 135.573 298.477 132.411 296.065C126.425 291.501 117.494 293.494 111.77 297.984C103.931 304.131 104.367 316.189 103.979 325.209C93.9285 316.204 81.4905 327.655 83.349 341.274Z" fill="#F2AA3F"/>
<path d="M450.915 225.13C454.588 225.13 457.565 222.153 457.565 218.481C457.565 214.808 454.588 211.831 450.915 211.831C447.243 211.831 444.266 214.808 444.266 218.481C444.266 222.153 447.243 225.13 450.915 225.13Z" fill="#FCDDEC"/>
<path d="M185.063 263.797C192.589 263.797 198.69 257.696 198.69 250.17C198.69 242.643 192.589 236.542 185.063 236.542C177.536 236.542 171.435 242.643 171.435 250.17C171.435 257.696 177.536 263.797 185.063 263.797Z" fill="#FCDDEC"/>
<path d="M561.004 339.025C565.671 334.359 565.671 326.792 561.004 322.125C556.337 317.458 548.771 317.458 544.104 322.125C539.437 326.792 539.437 334.358 544.104 339.025C548.771 343.692 556.337 343.692 561.004 339.025Z" fill="#FCDDEC"/>
<path d="M303.845 195.096C307.517 195.096 310.494 192.119 310.494 188.446C310.494 184.774 307.517 181.797 303.845 181.797C300.172 181.797 297.195 184.774 297.195 188.446C297.195 192.119 300.172 195.096 303.845 195.096Z" fill="#E5E5FD"/>
<path d="M413.561 276.057C413.561 273.273 411.303 271.015 408.519 271.015C405.735 271.015 403.478 273.273 403.478 276.057C403.478 278.841 405.735 281.098 408.519 281.098C411.305 281.098 413.561 278.842 413.561 276.057Z" fill="#E5E5FD"/>
<path d="M279.872 298.455C279.872 295.671 277.614 293.413 274.83 293.413C272.046 293.413 269.789 295.671 269.789 298.455C269.789 301.239 272.046 303.496 274.83 303.496C277.614 303.496 279.872 301.239 279.872 298.455Z" fill="#E5E5FD"/>
<path d="M375 611.533C485.159 611.533 574.461 608.411 574.461 604.56C574.461 600.709 485.159 597.586 375 597.586C264.841 597.586 175.539 600.709 175.539 604.56C175.539 608.411 264.841 611.533 375 611.533Z" fill="#B1B8CA"/>
<path d="M403.477 520.503L402.53 523.438L392.573 520.615L403.477 520.503Z" fill="#C62828"/>
<path d="M487.038 434.775L486.744 431.929L466.289 368.305L460.328 377.043C459.582 378.15 458.048 378.352 457.031 377.494C456.534 377.043 456.263 376.434 456.263 375.801C456.263 375.349 456.398 374.898 456.692 374.514L457.278 373.678C456.872 373.927 456.398 374.04 455.901 374.04C455.021 374.04 454.208 373.656 453.666 373.047C452.876 373.521 452.018 373.882 451.115 374.131L465.813 404.16C480.015 432.337 477.464 466.045 459.221 491.784L449.738 505.173C448.406 507.046 447.231 509.034 446.034 511.02C445.808 511.381 445.605 511.72 445.38 512.08C442.332 517.071 436.89 520.231 430.908 520.276L422.036 520.344L405.644 520.501H403.476L402.528 523.437L433.572 535.855C435.65 536.713 437.117 538.632 437.343 540.891C437.366 541.093 437.366 541.297 437.366 541.477C437.366 541.794 437.343 542.11 437.298 542.425L438.812 542.719C452.358 541.275 464.076 532.695 469.608 520.231L472.295 514.158L479.046 498.94L481.71 490.113C487.128 472.209 488.936 453.379 487.038 434.775Z" fill="#FF9F47"/>
<path d="M505.191 444.415C503.724 444.054 502.46 443.151 501.602 441.931C493.181 429.762 487.04 416.148 483.494 401.788L475.365 368.938C472.182 365.823 470.217 361.51 470.217 356.746C470.217 352.998 471.414 349.567 473.468 346.744C473.468 346.744 456.309 347.422 451.094 357.198L452.064 356.881C454.616 356.046 457.415 356.656 459.38 358.485L465.882 364.603C466.92 365.574 467.079 367.132 466.289 368.307L486.744 431.931L487.038 434.776C488.934 453.381 487.128 472.21 481.71 490.114L479.046 498.942L472.296 514.159L469.61 520.233C464.078 532.696 452.36 541.275 438.813 542.719L437.3 542.425C436.961 544.615 435.449 546.489 433.281 547.234L426.215 549.651C419.645 551.908 412.691 552.901 405.737 552.609C404.901 552.564 404.088 552.519 403.253 552.429L365.909 549.132C363.696 548.929 361.823 547.597 360.851 545.722H360.849C360.353 544.774 360.104 543.69 360.173 542.562C360.896 530.28 365.885 519.51 365.885 519.51L367.985 521.52L369.768 517.636C365.997 516.394 362.363 514.791 358.886 512.805C345.701 505.264 338.792 491.763 338.792 478.102C338.792 473.316 339.627 468.507 341.366 463.968C343.443 458.481 346.785 453.357 351.458 448.999L374.285 427.686L317.727 428.905C317.727 428.905 312.015 429.492 305.964 429.04L240.489 432.54C240.105 432.562 239.721 432.607 239.36 432.652C233.738 433.51 229.47 438.364 229.47 444.166C229.47 444.166 216.059 447.915 200.594 460.581C197.501 463.132 194.318 466.021 191.133 469.318C186.504 474.127 181.877 479.817 177.564 486.477C170.091 497.992 163.544 512.464 159.389 530.548L167.133 518.446C183.638 492.663 206.328 471.417 233.151 456.651C243.56 450.939 255.096 448.048 266.657 448.048C276.297 448.048 285.983 450.058 295.014 454.099C314.973 463.017 326.172 482.412 326.172 502.258C326.172 513.57 322.515 525.061 314.771 534.838L304.589 547.707L304.274 554.052L405.422 558.951L422.58 559.786C442.245 560.734 460.578 550.417 470.039 533.461C470.852 532.039 471.573 530.548 472.251 529.036L478.754 518.989C485.775 508.174 490.382 496.164 492.435 483.745C499.728 477.853 508.421 473.608 517.925 471.621V471.6C519.257 468.868 519.866 466.023 519.866 463.201C519.867 454.666 514.155 446.65 505.191 444.415Z" fill="#E96200"/>
<path d="M326.172 502.26C326.172 513.571 322.515 525.063 314.771 534.84L304.589 547.708L304.272 554.053L293.684 553.534C293.774 552.315 293.819 551.073 293.819 549.832C293.819 519.601 269.322 495.103 239.09 495.103C209.378 495.103 185.219 518.742 184.406 548.251L173.207 547.71C164.198 547.71 157.38 539.356 159.389 530.551L167.133 518.449C183.638 492.666 206.328 471.42 233.151 456.654C243.56 450.942 255.096 448.051 266.657 448.051C276.297 448.051 285.983 450.061 295.014 454.102C314.973 463.02 326.172 482.415 326.172 502.26Z" fill="#FF6B00"/>
<path d="M239.09 495.103C209.378 495.103 185.219 518.742 184.406 548.251L203.28 549.177L222.788 550.102L255.3 551.682L274.83 552.63L293.682 553.533C293.772 552.313 293.817 551.071 293.817 549.831C293.817 519.6 269.321 495.103 239.09 495.103Z" fill="#FFCD83"/>
<path d="M254.292 538.315C254.271 538.315 254.25 538.315 254.229 538.314L205.409 535.641C204.786 535.608 204.309 535.074 204.344 534.453C204.377 533.829 204.926 533.32 205.532 533.388L254.352 536.059C254.975 536.092 255.452 536.626 255.417 537.247C255.386 537.85 254.888 538.315 254.292 538.315Z" fill="white"/>
<path d="M258.774 533.832C258.753 533.832 258.732 533.832 258.711 533.83L209.891 531.159C209.268 531.126 208.791 530.592 208.825 529.971C208.858 529.347 209.402 528.844 210.014 528.906L258.834 531.577C259.456 531.61 259.934 532.144 259.899 532.765C259.868 533.367 259.37 533.832 258.774 533.832Z" fill="white"/>
<path d="M263.258 529.35C263.237 529.35 263.216 529.35 263.195 529.348L214.374 526.677C213.752 526.644 213.275 526.11 213.309 525.489C213.342 524.865 213.878 524.368 214.497 524.424L263.318 527.097C263.94 527.13 264.417 527.664 264.383 528.285C264.351 528.885 263.853 529.35 263.258 529.35Z" fill="white"/>
<path d="M267.471 525.135C267.451 525.135 267.432 525.135 267.409 525.133L218.589 522.463C217.966 522.43 217.489 521.896 217.524 521.275C217.557 520.651 218.095 520.154 218.712 520.211L267.532 522.881C268.155 522.914 268.632 523.447 268.597 524.068C268.564 524.67 268.066 525.135 267.471 525.135Z" fill="white"/>
<path d="M295.019 454.104C303.662 457.677 311.39 463.677 316.953 471.339C319.839 475.107 321.935 479.401 323.784 483.775C325.332 488.26 326.577 492.898 326.898 497.659C327.708 507.117 326.208 516.91 321.941 525.481C319.82 529.746 317.055 533.736 314.126 537.376L305.363 548.329L304.592 546.736C313.443 546.745 322.295 546.967 331.146 547.074C339.998 547.207 348.849 547.435 357.701 547.72C348.849 548.005 339.998 548.233 331.146 548.367C322.295 548.472 313.443 548.695 304.592 548.704C304.049 548.704 303.608 548.265 303.608 547.722C303.608 547.492 303.69 547.276 303.821 547.11L312.474 536.071C315.368 532.393 317.901 528.64 319.919 524.505C324.047 516.319 325.608 506.953 324.911 497.832C324.653 493.239 323.463 488.775 322.137 484.377C320.472 480.1 318.567 475.863 315.864 472.111C310.634 464.511 303.438 458.221 295.019 454.104Z" fill="#6D0944"/>
<path d="M374.284 427.686L351.457 448.999C346.783 453.357 343.441 458.482 341.365 463.968C317.049 456.789 305.964 429.04 305.964 429.04C312.015 429.492 317.727 428.905 317.727 428.905L374.284 427.686Z" fill="#FF9F47"/>
<path d="M530.456 470.313C526.166 470.313 521.966 470.764 517.925 471.6V471.623C508.419 473.61 499.727 477.853 492.434 483.747C490.379 496.165 485.774 508.176 478.752 518.991L472.25 529.038C471.572 530.55 470.85 532.041 470.037 533.463C470.241 538.407 471.03 543.171 472.362 547.71L481.776 544.459L502.661 537.256L554.861 519.217L575.745 511.994L586.605 508.245C577.643 486.004 555.9 470.313 530.456 470.313Z" fill="#FFCD83"/>
<path d="M575.746 511.992C585.184 521.814 590.964 535.156 590.964 549.832C590.964 580.063 566.467 604.561 536.235 604.561C506.004 604.561 481.506 580.065 481.506 549.832C481.506 548.026 481.596 546.22 481.777 544.459L502.662 537.256C501.195 541.162 500.382 545.407 500.382 549.832C500.382 569.634 516.435 585.685 536.235 585.685C556.035 585.685 572.066 569.632 572.066 549.832C572.066 536.85 565.179 525.493 554.861 519.217L575.746 511.992Z" fill="#3F1085"/>
<path d="M554.862 519.216C565.18 525.492 572.067 536.849 572.067 549.831C572.067 569.633 556.036 585.684 536.236 585.684C516.436 585.684 500.383 569.631 500.383 549.831C500.383 545.406 501.196 541.161 502.663 537.255L554.862 519.216ZM552.559 549.831C552.559 540.822 545.244 533.507 536.236 533.507C527.205 533.507 519.912 540.822 519.912 549.831C519.912 558.84 527.205 566.154 536.236 566.154C545.244 566.156 552.559 558.84 552.559 549.831Z" fill="#E5E5FD"/>
<path d="M536.235 566.154C545.25 566.154 552.558 558.846 552.558 549.831C552.558 540.816 545.25 533.508 536.235 533.508C527.22 533.508 519.912 540.816 519.912 549.831C519.912 558.846 527.22 566.154 536.235 566.154Z" fill="#3A3635"/>
<path d="M536.235 566.154C545.25 566.154 552.558 558.846 552.558 549.831C552.558 540.816 545.25 533.508 536.235 533.508C527.22 533.508 519.912 540.816 519.912 549.831C519.912 558.846 527.22 566.154 536.235 566.154Z" fill="#3F1085"/>
<path d="M274.83 552.631L293.682 553.535C291.786 582.029 268.078 604.56 239.089 604.56C208.858 604.56 184.36 580.063 184.36 549.831C184.36 549.312 184.36 548.771 184.405 548.25L203.28 549.176C203.257 549.402 203.257 549.604 203.257 549.831C203.257 569.632 219.288 585.684 239.088 585.684C257.941 585.685 273.408 571.122 274.83 552.631Z" fill="#3F1085"/>
<path d="M255.3 551.683L274.83 552.631C273.408 571.122 257.942 585.685 239.09 585.685C219.29 585.685 203.259 569.632 203.259 549.832C203.259 549.606 203.259 549.404 203.282 549.177L222.789 550.102C222.924 558.999 230.172 566.156 239.09 566.156C247.488 566.156 254.397 559.81 255.3 551.683Z" fill="#E5E5FD"/>
<path d="M222.787 550.103L255.3 551.684C254.397 559.812 247.488 566.156 239.089 566.156C230.17 566.156 222.924 558.998 222.787 550.103Z" fill="#3F1085"/>
<path d="M499.953 339.745V373.725H491.532C492.774 358.62 491.51 339.745 491.51 339.745H499.953Z" fill="#FF83C1"/>
<path d="M475.365 368.938C472.182 365.823 470.217 361.51 470.217 356.746C470.217 352.998 471.414 349.567 473.469 346.744C473.988 346.021 474.552 345.345 475.185 344.712C478.278 341.641 482.523 339.745 487.197 339.745H491.51C491.51 339.745 492.774 358.62 491.532 373.725H487.197C482.613 373.725 478.436 371.896 475.365 368.938Z" fill="#FF9F47"/>
<path d="M280.068 425.27V430.425L239.642 432.62L237.894 432.975L213.486 425.27H280.068Z" fill="#3A3635"/>
<path d="M280.068 398.266V425.269H213.486H177.564V349.431H280.068V398.266Z" fill="#FF9393"/>
<path d="M273.207 377.17H183.281V382.501H273.207V377.17Z" fill="#A80F5C"/>
<path d="M273.207 392.896H183.281V398.227H273.207V392.896Z" fill="#A80F5C"/>
<path d="M273.207 408.622H183.281V413.953H273.207V408.622Z" fill="#A80F5C"/>
<path d="M238.068 365.853H216.987C212.615 365.853 209.07 362.309 209.07 357.936V353.937H245.985V357.936C245.985 362.309 242.441 365.853 238.068 365.853Z" fill="#A80F5C"/>
<path d="M181.391 353.937C189.042 353.472 196.694 353.253 204.345 353.073C211.997 352.866 219.648 352.837 227.298 352.809C234.95 352.834 242.601 352.864 250.253 353.068L261.729 353.383C265.554 353.571 269.381 353.68 273.206 353.937C269.381 354.193 265.554 354.303 261.729 354.49L250.253 354.805C242.601 355.009 234.95 355.039 227.298 355.065C219.647 355.036 211.995 355.008 204.345 354.801C196.694 354.621 189.042 354.403 181.391 353.937Z" fill="#6D0944"/>
<path d="M434.184 426.895L438.813 485.869L429.239 488.307L412.667 492.507L434.184 426.895Z" fill="#2E0968"/>
<path d="M431.858 397.251L432.287 402.85C428.178 396.574 421.247 392.125 412.938 391.674L338.726 387.496L341.526 384.291C342.768 382.891 344.507 382.056 346.38 381.966L409.847 379.189L411.381 379.122C421.97 378.669 431.024 386.685 431.858 397.251Z" fill="#2E0968"/>
<path d="M429.239 488.307L433.19 505.534L429.441 512.082C427.838 514.905 424.926 516.394 421.991 516.394C419.891 516.394 417.791 515.649 416.121 514.069L411.786 510.006L409.913 500.907V500.884L412.667 492.508L429.239 488.307Z" fill="#D8667C"/>
<path d="M437.345 504.631C435.968 503.638 434.027 504.045 433.19 505.534L429.443 512.082C427.839 514.905 424.928 516.394 421.992 516.394C419.892 516.394 417.792 515.649 416.123 514.069L411.788 510.006L409.575 507.928L405.647 520.482V520.504L422.039 520.347L430.911 520.279C436.895 520.234 442.335 517.074 445.383 512.083C445.608 511.722 445.812 511.383 446.037 511.023L437.345 504.631Z" fill="#303D89"/>
<path d="M379.659 223.402C379.771 226.608 380.517 232.14 383.926 236.542C381.849 236.632 379.547 237.129 377.876 238.281C376.928 238.935 376.047 239.793 375.007 240.291C372.163 241.713 369.228 240.426 366.382 240.72C365.344 240.832 364.305 241.758 363.718 242.683C363.606 242.863 363.538 243.022 363.469 243.202L362.589 242.976L364.983 233.493C365.706 230.67 367.986 228.594 370.83 227.961C373.087 227.443 376.09 226.179 379.659 223.402Z" fill="#FD97A7"/>
<path d="M373.509 259.146C373.035 259.056 372.583 258.943 372.154 258.784C371.997 258.739 371.838 258.694 371.68 258.627C371.68 258.627 368.61 259.281 365.313 261.946C362.22 264.453 358.923 268.765 357.84 276.058L348.424 266.643C345.489 263.73 341.65 261.969 337.564 261.699V261.676L343.728 255.378C347.025 251.991 349.597 247.972 351.291 243.547L353.074 238.828C353.775 239.302 354.631 239.574 355.536 239.574C356.778 239.574 357.906 239.077 358.696 238.242L357.499 241.155C356.935 242.509 357.567 244.09 358.921 244.677C359.26 244.812 359.622 244.881 359.983 244.881C361.09 244.881 362.128 244.225 362.535 243.12L362.58 242.985L363.46 243.21C363.144 244.272 364.092 244.971 364.498 246.168C365.356 248.697 365.65 251.112 367.14 253.461C367.726 254.386 368.02 255.199 368.766 255.967C370.143 257.367 371.701 258.337 373.485 259.128L373.509 259.146Z" fill="#FD97A7"/>
<path d="M377.19 233.097C377.902 233.097 378.478 232.52 378.478 231.808C378.478 231.097 377.902 230.52 377.19 230.52C376.478 230.52 375.901 231.097 375.901 231.808C375.901 232.52 376.478 233.097 377.19 233.097Z" fill="#042128"/>
<path d="M378.693 227.196C378.133 227.73 377.628 228.094 377.158 228.462C376.695 228.829 376.213 229.08 375.834 229.462C375.34 229.695 374.988 230.071 374.526 230.394C374.044 230.715 373.629 231.129 372.969 231.57L372.844 231.529C373.239 230.301 374.004 229.165 375.066 228.399C376.14 227.653 377.394 227.209 378.682 227.065L378.693 227.196Z" fill="#1C54D1"/>
<path d="M366.381 255.123C367.521 256.309 368.805 257.385 370.299 258.076C370.751 258.285 371.211 258.469 371.679 258.627C371.679 258.627 368.609 259.281 365.312 261.946C357.563 256.753 359.54 248.001 359.54 248.001L366.381 255.123Z" fill="#D8667C"/>
<path d="M379.704 220.783C374.668 221.484 368.212 221.008 359.994 218.481L329.74 238.824C329.74 238.824 329.154 252.889 343.738 255.373C343.747 255.364 343.755 255.355 343.764 255.346C347.352 256.603 351.181 253.411 351.688 249.945C351.942 248.209 351.994 246.681 352.681 245.001C353.244 243.627 353.067 242.535 352.977 241.137C352.927 240.369 353.046 239.646 353.052 238.911L353.085 238.824C353.073 238.816 353.062 238.806 353.052 238.798C353.05 238.699 353.056 238.602 353.05 238.503C352.924 238.489 352.798 238.512 352.672 238.513C351.711 237.703 351.099 236.491 351.099 235.122C351.099 232.66 353.085 230.674 355.546 230.674C358.008 230.674 359.994 232.662 359.994 235.122L358.707 238.237L357.51 241.15C356.946 242.505 357.577 244.086 358.932 244.672C359.271 244.807 359.632 244.875 359.994 244.875C361.101 244.875 362.139 244.221 362.545 243.114L362.59 242.979L364.983 233.496C365.706 230.673 367.986 228.597 370.83 227.964C373.087 227.445 376.09 226.18 379.657 223.404C379.612 221.823 379.702 220.807 379.702 220.807V220.783H379.704Z" fill="#1C54D1"/>
<path d="M374.736 208.569H396.658C396.658 208.569 393.498 218.955 379.702 220.783C374.667 221.484 368.211 221.008 359.992 218.481L374.736 208.569Z" fill="#FDBC0B"/>
<path d="M374.736 208.569L359.992 218.481L329.739 238.824L328.836 239.433C319.512 225.163 322.605 215.253 326.803 209.472C329.265 206.062 334.887 202.224 338.724 200.485C366.202 188.001 374.736 208.569 374.736 208.569Z" fill="#F99410"/>
<path d="M341.849 201.949C344.025 202.122 346.154 202.749 348.179 203.605C350.21 204.462 352.097 205.666 353.777 207.114C355.458 208.56 356.901 210.306 357.927 212.268C359.046 214.185 359.633 216.346 359.994 218.479C359.177 216.46 358.408 214.458 357.183 212.713C356.031 210.94 354.653 209.32 353.037 207.964C349.862 205.176 345.99 203.226 341.849 201.949Z" fill="#AF680B"/>
<path d="M385.015 237.807C385.779 238.614 386.046 239.781 385.003 240.163L384.454 240.312C382.306 241.099 380.878 243.142 380.878 245.43V247.198V255.123C380.878 257.508 378.946 259.462 376.561 259.458C375.555 259.456 374.548 259.344 373.54 259.141H373.518C371.734 258.328 370.153 257.358 368.776 255.958C368.031 255.19 367.738 254.377 367.15 253.452C365.661 251.104 365.367 248.688 364.509 246.159C364.102 244.962 363.154 244.263 363.471 243.201C363.538 243.021 363.606 242.862 363.72 242.682C364.306 241.756 365.346 240.831 366.384 240.718C369.229 240.424 372.163 241.711 375.009 240.289C376.047 239.793 376.927 238.935 377.877 238.279C379.548 237.127 381.85 236.631 383.928 236.541C384.262 236.977 384.625 237.396 385.015 237.807Z" fill="white"/>
<path d="M367.051 241.747C366.981 241.747 366.91 241.722 366.858 241.669L359.157 234.327C359.044 234.22 359.04 234.042 359.146 233.928C359.26 233.817 359.437 233.809 359.545 233.919L367.246 241.261C367.359 241.368 367.363 241.546 367.257 241.66C367.198 241.717 367.125 241.747 367.051 241.747Z" fill="#424242"/>
<path d="M367.051 251.68C366.972 251.68 366.892 251.647 366.837 251.583L355.837 238.858C355.735 238.74 355.749 238.563 355.866 238.461C355.983 238.359 356.161 238.371 356.265 238.491L367.264 251.215C367.366 251.334 367.353 251.511 367.236 251.613C367.183 251.656 367.117 251.68 367.051 251.68Z" fill="#424242"/>
<path d="M369.204 245.491C370.251 245.664 371.304 245.679 372.345 245.643C373.386 245.592 374.424 245.496 375.439 245.263C377.487 244.872 379.432 244.096 381.358 243.204C380.499 243.825 379.591 244.401 378.607 244.824C377.638 245.287 376.594 245.562 375.552 245.817C373.449 246.192 371.215 246.241 369.204 245.491Z" fill="#424242"/>
<path d="M368.685 248.851C369.553 249.544 370.488 250.131 371.445 250.662C372.403 251.187 373.393 251.656 374.43 251.991C376.474 252.763 378.658 253.027 380.878 253.081C379.783 253.254 378.655 253.36 377.536 253.233C376.413 253.152 375.31 252.876 374.242 252.522C372.133 251.751 370.143 250.548 368.685 248.851Z" fill="#424242"/>
<path d="M359.992 235.12L358.705 238.236C357.915 239.071 356.787 239.568 355.545 239.568C354.642 239.568 353.784 239.296 353.083 238.822C351.886 238.032 351.096 236.677 351.096 235.12C351.096 232.659 353.083 230.673 355.543 230.673C358.006 230.671 359.992 232.659 359.992 235.12Z" fill="#D8667C"/>
<path d="M363.087 320.058L338.726 325.974L351.911 356.227C351.911 356.227 351.234 372.799 346.379 381.966C344.505 382.056 342.767 382.891 341.525 384.291L338.724 387.496C337.167 387.406 335.654 387.993 334.569 389.1L312.533 411.858C310.637 413.823 308.424 415.447 305.985 416.689L292.394 423.508L289.73 422.538C287.811 421.837 286.163 420.642 284.921 419.106C283.679 417.571 282.843 415.719 282.573 413.71C281.85 408.585 281.489 403.414 281.489 398.268C281.489 391.608 282.075 384.946 283.295 378.376L294.855 315.678C296.3 307.753 298.716 300.076 301.989 292.783C305.285 285.49 309.44 278.605 314.406 272.26C317.048 268.896 320.39 266.254 324.137 264.426C327.863 262.62 332.016 261.627 336.306 261.627C336.735 261.627 337.142 261.649 337.571 261.694C341.657 261.966 345.495 263.727 348.431 266.638L357.846 276.054C359.088 277.296 359.246 279.259 358.23 280.683L355.95 283.866L363.087 320.058Z" fill="#FDBC0B"/>
<path d="M317.102 288.73C317.952 292.029 318.764 295.335 319.502 298.654C320.22 301.978 321.029 305.284 321.672 308.623L323.693 318.621L325.533 328.653L324.624 328.059C328.179 327.255 331.763 326.571 335.34 325.866C338.915 325.143 342.512 324.523 346.115 323.934C342.611 324.963 339.101 325.965 335.567 326.862C332.037 327.777 328.512 328.714 324.959 329.53L324.204 329.704L324.05 328.938L322.046 318.937L320.222 308.902C319.583 305.563 319.11 302.193 318.546 298.839C318.003 295.482 317.534 292.11 317.102 288.73Z" fill="#A34A0D"/>
<path d="M303.185 390.162C305.666 388.933 308.106 387.645 310.445 386.182C312.821 384.792 315.123 383.283 317.355 381.684C321.819 378.493 326.061 374.997 329.828 371.037C333.735 367.2 336.903 362.706 339.674 358.012L341.607 354.394C342.186 353.157 342.63 351.859 343.158 350.593L343.953 348.688L344.516 346.707C344.879 345.379 345.264 344.053 345.666 342.721C344.882 348.183 343.475 353.679 340.823 358.63C338.225 363.576 334.946 368.197 331.047 372.213C327.093 376.165 322.775 379.752 318.083 382.761C313.385 385.746 308.432 388.356 303.185 390.162Z" fill="#A34A0D"/>
<path d="M293.028 400.676C296.715 400.281 300.357 399.741 303.966 399.047C307.571 398.337 311.148 397.529 314.666 396.51C318.201 395.553 321.671 394.368 325.092 393.05C328.545 391.787 331.833 390.15 335.204 388.583C332.199 390.752 329.004 392.711 325.605 394.247C322.245 395.873 318.714 397.127 315.123 398.139C311.528 399.135 307.869 399.915 304.164 400.328C300.47 400.764 296.735 400.98 293.028 400.676Z" fill="#A34A0D"/>
<path d="M339.627 266.874C341.609 267.348 343.487 268.244 345.209 269.354C346.935 270.462 348.528 271.79 349.937 273.29C351.306 274.82 352.601 276.435 353.573 278.244C354.122 279.11 354.503 280.068 354.941 280.986C355.32 281.933 355.649 282.9 355.952 283.865C354.944 282.096 353.955 280.356 352.811 278.723L351.959 277.499L351.036 276.329C350.439 275.537 349.761 274.809 349.097 274.079C347.757 272.618 346.263 271.31 344.696 270.089C343.11 268.89 341.45 267.765 339.627 266.874Z" fill="#A34A0D"/>
<path d="M297.382 305.169C297.591 308.103 297.873 311.014 298.228 313.917C298.603 316.816 298.981 319.713 299.494 322.587C299.974 325.467 300.534 328.333 301.153 331.189C301.746 334.054 302.503 336.879 303.184 339.744C302.625 338.385 302.085 337.014 301.597 335.623C301.14 334.225 300.682 332.823 300.291 331.402C299.461 328.572 298.864 325.68 298.356 322.777C297.868 319.87 297.514 316.938 297.348 313.996C297.264 312.525 297.214 311.052 297.193 309.58C297.223 308.107 297.231 306.634 297.382 305.169Z" fill="#A34A0D"/>
<path d="M432.287 402.85C428.177 396.574 421.247 392.125 412.938 391.674L338.726 387.496C337.167 387.406 335.655 387.993 334.571 389.1L312.534 411.858C310.638 413.823 308.426 415.447 305.987 416.689L292.395 423.508C294.044 427.257 300.162 428.634 305.964 429.04C312.015 429.492 317.727 428.905 317.727 428.905L374.285 427.686L395.349 427.234L369.182 513.978L371.192 514.542L392.528 520.593L392.573 520.615L403.478 520.503L409.913 500.905V500.883L412.667 492.507L434.183 426.895L435.086 424.119C437.571 416.554 436.215 408.856 432.287 402.85Z" fill="#591C9D"/>
<path d="M437.344 540.891C437.367 541.093 437.367 541.297 437.367 541.477C437.367 541.794 437.344 542.11 437.299 542.425C436.96 544.615 435.449 546.489 433.281 547.234L426.215 549.651C419.645 551.908 412.69 552.903 405.736 552.609C404.901 552.564 404.088 552.519 403.252 552.429L365.908 549.132C363.696 548.929 361.822 547.597 360.85 545.722C360.354 544.774 360.105 543.69 360.173 542.562C360.896 530.28 365.885 519.51 365.885 519.51L367.984 521.52L369.339 522.829C373.561 526.87 379.905 527.683 384.986 524.839L392.504 520.617H392.549H392.571L402.528 523.44L433.572 535.858C435.651 536.713 437.119 538.633 437.344 540.891Z" fill="#4E58AF"/>
<path d="M371.191 514.542L369.769 517.635L367.986 521.518L369.34 522.828C373.563 526.869 379.906 527.682 384.987 524.838L392.505 520.615L392.527 520.593L371.191 514.542Z" fill="#FD97A7"/>
<path d="M435.226 542.719C433.822 543.388 432.3 543.762 430.821 544.224L426.343 545.509L417.339 547.885C414.293 548.683 411.117 548.952 407.97 548.802C404.832 548.569 401.778 548.245 398.677 547.972C392.506 547.323 386.331 546.721 380.164 546.025L370.917 544.957C370.143 544.849 369.387 544.786 368.595 544.638C367.815 544.485 367.059 544.222 366.354 543.871C365.646 543.522 364.99 543.075 364.404 542.556C363.816 542.032 363.339 541.414 362.833 540.828C363.889 541.966 365.058 543.01 366.483 543.594C367.183 543.895 367.92 544.104 368.67 544.209C369.409 544.308 370.204 544.332 370.972 544.395L380.251 545.142C386.436 545.655 392.61 546.265 398.79 546.825C401.866 547.131 404.981 547.494 408.029 547.755C411.077 547.95 414.144 547.666 417.135 547.026L426.207 544.963L430.743 543.93L433.003 543.381C433.749 543.178 434.521 543.039 435.226 542.719Z" fill="#303D89"/>
<path d="M465.884 364.603C466.922 365.574 467.081 367.132 466.29 368.305L460.329 377.043C459.584 378.15 458.049 378.352 457.032 377.494C456.536 377.043 456.264 376.434 456.264 375.801C456.264 375.349 456.399 374.898 456.693 374.514L457.28 373.678C458.115 373.272 458.724 372.459 458.861 371.488L459.854 370.089C460.283 369.502 460.011 368.667 459.312 368.44L457.551 367.876C456.468 367.515 455.294 367.627 454.278 368.17L443.102 374.131C442.673 374.358 442.221 374.515 441.77 374.605C440.732 374.854 439.625 374.74 438.632 374.311L432.287 371.535L412.983 372.889C411.854 372.979 410.703 373.024 409.574 373.069C402.936 373.294 396.299 372.867 389.774 371.737L366.564 367.719C360.062 366.613 354.552 362.278 351.911 356.227L338.726 325.974L363.087 320.058L366.338 331.617C367.805 336.787 371.418 341.1 376.272 343.425L391.355 350.695C397.496 353.653 403.998 355.821 410.681 357.13L430.887 361.059C434.454 361.737 438.158 361.51 441.612 360.358L451.095 357.198L452.066 356.881C454.617 356.046 457.416 356.656 459.381 358.485L465.884 364.603Z" fill="#FD97A7"/>
<path d="M459.312 368.442C460.013 368.667 460.283 369.502 459.854 370.09L458.861 371.49C458.883 371.332 458.906 371.173 458.906 371.016C458.906 369.345 457.574 368.013 455.903 368.013C454.232 368.013 452.877 369.345 452.877 371.016C452.877 371.806 453.171 372.505 453.668 373.048C452.877 373.522 452.019 373.884 451.116 374.133C446.714 375.442 441.77 374.629 441.77 374.629V374.607C442.221 374.517 442.673 374.359 443.102 374.133L454.278 368.172C455.294 367.63 456.468 367.516 457.551 367.878L459.312 368.442Z" fill="#D8667C"/>
<path d="M455.904 368.013C454.233 368.013 452.879 369.345 452.879 371.016C452.879 371.806 453.173 372.505 453.669 373.048C454.211 373.657 455.024 374.041 455.904 374.041C456.401 374.041 456.875 373.929 457.281 373.68C458.117 373.273 458.726 372.46 458.862 371.49C458.885 371.332 458.907 371.173 458.907 371.016C458.907 369.345 457.574 368.013 455.904 368.013Z" fill="#3A3635"/>
<path d="M366.564 367.719C362.589 367.446 358.703 365.676 355.676 362.919C354.173 361.53 352.892 359.887 351.906 358.081C350.912 356.232 350.244 354.448 349.437 352.624C347.876 348.997 346.35 345.354 344.916 341.673C343.448 338.005 342.03 334.315 340.731 330.574C342.588 334.072 344.327 337.623 346.013 341.194C347.733 344.752 349.364 348.349 350.957 351.961C351.777 353.733 352.518 355.65 353.36 357.298C354.263 358.956 355.341 360.538 356.682 361.891C359.288 364.681 362.75 366.652 366.564 367.719Z" fill="#A34A0D"/>
<path d="M261.345 309.217H186.168V349.431H261.345V309.217Z" fill="#F99410"/>
<path d="M228.245 309.217H219.27V330.573H228.245V309.217Z" fill="#AF680B"/>
<path d="M257.184 315.352H239.971V322.456H257.184V315.352Z" fill="#FFE8CA"/>
<path d="M305.964 237.292H223.756C223.342 237.292 223.006 236.956 223.006 236.542C223.006 236.128 223.342 235.792 223.756 235.792H305.964C306.378 235.792 306.714 236.128 306.714 236.542C306.714 236.958 306.378 237.292 305.964 237.292Z" fill="#3F1085"/>
<path d="M314.483 246.833H265.847C265.433 246.833 265.097 246.497 265.097 246.083C265.097 245.669 265.433 245.333 265.847 245.333H314.483C314.897 245.333 315.233 245.669 315.233 246.083C315.233 246.497 314.897 246.833 314.483 246.833Z" fill="#3F1085"/>
<path d="M198.691 409.268H134.502C134.088 409.268 133.752 408.932 133.752 408.518C133.752 408.104 134.088 407.768 134.502 407.768H198.691C199.105 407.768 199.441 408.104 199.441 408.518C199.441 408.932 199.105 409.268 198.691 409.268Z" fill="#3F1085"/>
<path d="M156.506 397.416H107.868C107.454 397.416 107.118 397.08 107.118 396.666C107.118 396.252 107.454 395.916 107.868 395.916H156.504C156.918 395.916 157.254 396.252 157.254 396.666C157.256 397.082 156.92 397.416 156.506 397.416Z" fill="#3F1085"/>
<path d="M460.061 329.219H428.684C428.27 329.219 427.934 328.883 427.934 328.469C427.934 328.055 428.27 327.719 428.684 327.719H460.061C460.475 327.719 460.811 328.055 460.811 328.469C460.811 328.884 460.475 329.219 460.061 329.219Z" fill="#3F1085"/>
<path d="M451.459 318.126H397.042C396.628 318.126 396.292 317.79 396.292 317.376C396.292 316.962 396.628 316.626 397.042 316.626H451.459C451.873 316.626 452.209 316.962 452.209 317.376C452.209 317.79 451.875 318.126 451.459 318.126Z" fill="#3F1085"/>
<path d="M293.028 262.375H227.3C226.886 262.375 226.55 262.039 226.55 261.625C226.55 261.211 226.886 260.875 227.3 260.875H293.028C293.442 260.875 293.778 261.211 293.778 261.625C293.778 262.041 293.444 262.375 293.028 262.375Z" fill="#3F1085"/>
<path d="M165.051 421.329H99.3225C98.9085 421.329 98.5725 420.993 98.5725 420.579C98.5725 420.165 98.9085 419.829 99.3225 419.829H165.051C165.465 419.829 165.801 420.165 165.801 420.579C165.801 420.993 165.467 421.329 165.051 421.329Z" fill="#3F1085"/>
</svg>
